solid zone0
  facet normal 0.995185 0 -0.0980135
    outer loop
       vertex 0.5 0.5 0
       vertex 0.5 -0.5 0
       vertex 0.490393 -0.5 -0.0975452
    endloop
  endfacet
  facet normal 0.995185 0 -0.0980135
    outer loop
       vertex 0.5 0.5 0
       vertex 0.490393 -0.5 -0.0975452
       vertex 0.490393 0.5 -0.0975452
    endloop
  endfacet
  facet normal 0.95694 0 -0.290285
    outer loop
       vertex 0.490393 0.5 -0.0975452
       vertex 0.490393 -0.5 -0.0975452
       vertex 0.46194 -0.5 -0.191342
    endloop
  endfacet
  facet normal 0.95694 0 -0.290285
    outer loop
       vertex 0.490393 0.5 -0.0975452
       vertex 0.46194 -0.5 -0.191342
       vertex 0.46194 0.5 -0.191342
    endloop
  endfacet
  facet normal 0.88192 0 -0.471399
    outer loop
       vertex 0.46194 0.5 -0.191342
       vertex 0.46194 -0.5 -0.191342
       vertex 0.415735 -0.5 -0.277785
    endloop
  endfacet
  facet normal 0.88192 0 -0.471399
    outer loop
       vertex 0.46194 0.5 -0.191342
       vertex 0.415735 -0.5 -0.277785
       vertex 0.415735 0.5 -0.277785
    endloop
  endfacet
  facet normal 0.773006 0 -0.634398
    outer loop
       vertex 0.415735 0.5 -0.277785
       vertex 0.415735 -0.5 -0.277785
       vertex 0.353553 -0.5 -0.353553
    endloop
  endfacet
  facet normal 0.773006 0 -0.634398
    outer loop
       vertex 0.415735 0.5 -0.277785
       vertex 0.353553 -0.5 -0.353553
       vertex 0.353553 0.5 -0.353553
    endloop
  endfacet
  facet normal 0.634398 0 -0.773006
    outer loop
       vertex 0.353553 0.5 -0.353553
       vertex 0.353553 -0.5 -0.353553
       vertex 0.277785 -0.5 -0.415735
    endloop
  endfacet
  facet normal 0.634398 0 -0.773006
    outer loop
       vertex 0.353553 0.5 -0.353553
       vertex 0.277785 -0.5 -0.415735
       vertex 0.277785 0.5 -0.415735
    endloop
  endfacet
  facet normal 0.471399 0 -0.88192
    outer loop
       vertex 0.277785 0.5 -0.415735
       vertex 0.277785 -0.5 -0.415735
       vertex 0.191342 -0.5 -0.46194
    endloop
  endfacet
  facet normal 0.471399 0 -0.88192
    outer loop
       vertex 0.277785 0.5 -0.415735
       vertex 0.191342 -0.5 -0.46194
       vertex 0.191342 0.5 -0.46194
    endloop
  endfacet
  facet normal 0.290285 0 -0.95694
    outer loop
       vertex 0.191342 0.5 -0.46194
       vertex 0.191342 -0.5 -0.46194
       vertex 0.0975452 -0.5 -0.490393
    endloop
  endfacet
  facet normal 0.290285 0 -0.95694
    outer loop
       vertex 0.191342 0.5 -0.46194
       vertex 0.0975452 -0.5 -0.490393
       vertex 0.0975452 0.5 -0.490393
    endloop
  endfacet
  facet normal 0.0980135 0 -0.995185
    outer loop
       vertex 0.0975452 0.5 -0.490393
       vertex 0.0975452 -0.5 -0.490393
       vertex 3.06162e-17 -0.5 -0.5
    endloop
  endfacet
  facet normal 0.0980135 0 -0.995185
    outer loop
       vertex 0.0975452 0.5 -0.490393
       vertex 3.06162e-17 -0.5 -0.5
       vertex 3.06162e-17 0.5 -0.5
    endloop
  endfacet
  facet normal -0.0980135 -0 -0.995185
    outer loop
       vertex 3.06162e-17 0.5 -0.5
       vertex 3.06162e-17 -0.5 -0.5
       vertex -0.0975452 -0.5 -0.490393
    endloop
  endfacet
  facet normal -0.0980135 0 -0.995185
    outer loop
       vertex 3.06162e-17 0.5 -0.5
       vertex -0.0975452 -0.5 -0.490393
       vertex -0.0975452 0.5 -0.490393
    endloop
  endfacet
  facet normal -0.290285 -0 -0.95694
    outer loop
       vertex -0.0975452 0.5 -0.490393
       vertex -0.0975452 -0.5 -0.490393
       vertex -0.191342 -0.5 -0.46194
    endloop
  endfacet
  facet normal -0.290285 0 -0.95694
    outer loop
       vertex -0.0975452 0.5 -0.490393
       vertex -0.191342 -0.5 -0.46194
       vertex -0.191342 0.5 -0.46194
    endloop
  endfacet
  facet normal -0.471399 -0 -0.88192
    outer loop
       vertex -0.191342 0.5 -0.46194
       vertex -0.191342 -0.5 -0.46194
       vertex -0.277785 -0.5 -0.415735
    endloop
  endfacet
  facet normal -0.471399 0 -0.88192
    outer loop
       vertex -0.191342 0.5 -0.46194
       vertex -0.277785 -0.5 -0.415735
       vertex -0.277785 0.5 -0.415735
    endloop
  endfacet
  facet normal -0.634398 -0 -0.773006
    outer loop
       vertex -0.277785 0.5 -0.415735
       vertex -0.277785 -0.5 -0.415735
       vertex -0.353553 -0.5 -0.353553
    endloop
  endfacet
  facet normal -0.634398 0 -0.773006
    outer loop
       vertex -0.277785 0.5 -0.415735
       vertex -0.353553 -0.5 -0.353553
       vertex -0.353553 0.5 -0.353553
    endloop
  endfacet
  facet normal -0.773006 -0 -0.634398
    outer loop
       vertex -0.353553 0.5 -0.353553
       vertex -0.353553 -0.5 -0.353553
       vertex -0.415735 -0.5 -0.277785
    endloop
  endfacet
  facet normal -0.773006 0 -0.634398
    outer loop
       vertex -0.353553 0.5 -0.353553
       vertex -0.415735 -0.5 -0.277785
       vertex -0.415735 0.5 -0.277785
    endloop
  endfacet
  facet normal -0.88192 -0 -0.471399
    outer loop
       vertex -0.415735 0.5 -0.277785
       vertex -0.415735 -0.5 -0.277785
       vertex -0.46194 -0.5 -0.191342
    endloop
  endfacet
  facet normal -0.88192 0 -0.471399
    outer loop
       vertex -0.415735 0.5 -0.277785
       vertex -0.46194 -0.5 -0.191342
       vertex -0.46194 0.5 -0.191342
    endloop
  endfacet
  facet normal -0.95694 -0 -0.290285
    outer loop
       vertex -0.46194 0.5 -0.191342
       vertex -0.46194 -0.5 -0.191342
       vertex -0.490393 -0.5 -0.0975452
    endloop
  endfacet
  facet normal -0.95694 0 -0.290285
    outer loop
       vertex -0.46194 0.5 -0.191342
       vertex -0.490393 -0.5 -0.0975452
       vertex -0.490393 0.5 -0.0975452
    endloop
  endfacet
  facet normal -0.995185 -0 -0.0980135
    outer loop
       vertex -0.490393 0.5 -0.0975452
       vertex -0.490393 -0.5 -0.0975452
       vertex -0.5 -0.5 -6.12323e-17
    endloop
  endfacet
  facet normal -0.995185 0 -0.0980135
    outer loop
       vertex -0.490393 0.5 -0.0975452
       vertex -0.5 -0.5 -6.12323e-17
       vertex -0.5 0.5 -6.12323e-17
    endloop
  endfacet
  facet normal -0.995185 0 0.0980135
    outer loop
       vertex -0.5 0.5 -6.12323e-17
       vertex -0.5 -0.5 -6.12323e-17
       vertex -0.490393 -0.5 0.0975452
    endloop
  endfacet
  facet normal -0.995185 0 0.0980135
    outer loop
       vertex -0.5 0.5 -6.12323e-17
       vertex -0.490393 -0.5 0.0975452
       vertex -0.490393 0.5 0.0975452
    endloop
  endfacet
  facet normal -0.95694 0 0.290285
    outer loop
       vertex -0.490393 0.5 0.0975452
       vertex -0.490393 -0.5 0.0975452
       vertex -0.46194 -0.5 0.191342
    endloop
  endfacet
  facet normal -0.95694 0 0.290285
    outer loop
       vertex -0.490393 0.5 0.0975452
       vertex -0.46194 -0.5 0.191342
       vertex -0.46194 0.5 0.191342
    endloop
  endfacet
  facet normal -0.88192 0 0.471399
    outer loop
       vertex -0.46194 0.5 0.191342
       vertex -0.46194 -0.5 0.191342
       vertex -0.415735 -0.5 0.277785
    endloop
  endfacet
  facet normal -0.88192 0 0.471399
    outer loop
       vertex -0.46194 0.5 0.191342
       vertex -0.415735 -0.5 0.277785
       vertex -0.415735 0.5 0.277785
    endloop
  endfacet
  facet normal -0.773006 0 0.634398
    outer loop
       vertex -0.415735 0.5 0.277785
       vertex -0.415735 -0.5 0.277785
       vertex -0.353553 -0.5 0.353553
    endloop
  endfacet
  facet normal -0.773006 0 0.634398
    outer loop
       vertex -0.415735 0.5 0.277785
       vertex -0.353553 -0.5 0.353553
       vertex -0.353553 0.5 0.353553
    endloop
  endfacet
  facet normal -0.634398 0 0.773006
    outer loop
       vertex -0.353553 0.5 0.353553
       vertex -0.353553 -0.5 0.353553
       vertex -0.277785 -0.5 0.415735
    endloop
  endfacet
  facet normal -0.634398 0 0.773006
    outer loop
       vertex -0.353553 0.5 0.353553
       vertex -0.277785 -0.5 0.415735
       vertex -0.277785 0.5 0.415735
    endloop
  endfacet
  facet normal -0.471399 0 0.88192
    outer loop
       vertex -0.277785 0.5 0.415735
       vertex -0.277785 -0.5 0.415735
       vertex -0.191342 -0.5 0.46194
    endloop
  endfacet
  facet normal -0.471399 0 0.88192
    outer loop
       vertex -0.277785 0.5 0.415735
       vertex -0.191342 -0.5 0.46194
       vertex -0.191342 0.5 0.46194
    endloop
  endfacet
  facet normal -0.290285 0 0.95694
    outer loop
       vertex -0.191342 0.5 0.46194
       vertex -0.191342 -0.5 0.46194
       vertex -0.0975452 -0.5 0.490393
    endloop
  endfacet
  facet normal -0.290285 0 0.95694
    outer loop
       vertex -0.191342 0.5 0.46194
       vertex -0.0975452 -0.5 0.490393
       vertex -0.0975452 0.5 0.490393
    endloop
  endfacet
  facet normal -0.0980135 0 0.995185
    outer loop
       vertex -0.0975452 0.5 0.490393
       vertex -0.0975452 -0.5 0.490393
       vertex -9.18485e-17 -0.5 0.5
    endloop
  endfacet
  facet normal -0.0980135 0 0.995185
    outer loop
       vertex -0.0975452 0.5 0.490393
       vertex -9.18485e-17 -0.5 0.5
       vertex -9.18485e-17 0.5 0.5
    endloop
  endfacet
  facet normal 0.0980135 0 0.995185
    outer loop
       vertex -9.18485e-17 0.5 0.5
       vertex -9.18485e-17 -0.5 0.5
       vertex 0.0975452 -0.5 0.490393
    endloop
  endfacet
  facet normal 0.0980135 0 0.995185
    outer loop
       vertex -9.18485e-17 0.5 0.5
       vertex 0.0975452 -0.5 0.490393
       vertex 0.0975452 0.5 0.490393
    endloop
  endfacet
  facet normal 0.290285 0 0.95694
    outer loop
       vertex 0.0975452 0.5 0.490393
       vertex 0.0975452 -0.5 0.490393
       vertex 0.191342 -0.5 0.46194
    endloop
  endfacet
  facet normal 0.290285 0 0.95694
    outer loop
       vertex 0.0975452 0.5 0.490393
       vertex 0.191342 -0.5 0.46194
       vertex 0.191342 0.5 0.46194
    endloop
  endfacet
  facet normal 0.471399 0 0.88192
    outer loop
       vertex 0.191342 0.5 0.46194
       vertex 0.191342 -0.5 0.46194
       vertex 0.277785 -0.5 0.415735
    endloop
  endfacet
  facet normal 0.471399 0 0.88192
    outer loop
       vertex 0.191342 0.5 0.46194
       vertex 0.277785 -0.5 0.415735
       vertex 0.277785 0.5 0.415735
    endloop
  endfacet
  facet normal 0.634398 0 0.773006
    outer loop
       vertex 0.277785 0.5 0.415735
       vertex 0.277785 -0.5 0.415735
       vertex 0.353553 -0.5 0.353553
    endloop
  endfacet
  facet normal 0.634398 0 0.773006
    outer loop
       vertex 0.277785 0.5 0.415735
       vertex 0.353553 -0.5 0.353553
       vertex 0.353553 0.5 0.353553
    endloop
  endfacet
  facet normal 0.773006 0 0.634398
    outer loop
       vertex 0.353553 0.5 0.353553
       vertex 0.353553 -0.5 0.353553
       vertex 0.415735 -0.5 0.277785
    endloop
  endfacet
  facet normal 0.773006 0 0.634398
    outer loop
       vertex 0.353553 0.5 0.353553
       vertex 0.415735 -0.5 0.277785
       vertex 0.415735 0.5 0.277785
    endloop
  endfacet
  facet normal 0.88192 0 0.471399
    outer loop
       vertex 0.415735 0.5 0.277785
       vertex 0.415735 -0.5 0.277785
       vertex 0.46194 -0.5 0.191342
    endloop
  endfacet
  facet normal 0.88192 0 0.471399
    outer loop
       vertex 0.415735 0.5 0.277785
       vertex 0.46194 -0.5 0.191342
       vertex 0.46194 0.5 0.191342
    endloop
  endfacet
  facet normal 0.95694 0 0.290285
    outer loop
       vertex 0.46194 0.5 0.191342
       vertex 0.46194 -0.5 0.191342
       vertex 0.490393 -0.5 0.0975452
    endloop
  endfacet
  facet normal 0.95694 0 0.290285
    outer loop
       vertex 0.46194 0.5 0.191342
       vertex 0.490393 -0.5 0.0975452
       vertex 0.490393 0.5 0.0975452
    endloop
  endfacet
  facet normal 0.995185 0 0.0980135
    outer loop
       vertex 0.490393 0.5 0.0975452
       vertex 0.490393 -0.5 0.0975452
       vertex 0.5 -0.5 0
    endloop
  endfacet
  facet normal 0.995185 0 0.0980135
    outer loop
       vertex 0.490393 0.5 0.0975452
       vertex 0.5 -0.5 0
       vertex 0.5 0.5 0
    endloop
  endfacet
  facet normal 0 1 0
    outer loop
       vertex 0.5 0.5 0
       vertex 0.490393 0.5 -0.0975452
       vertex 0.46194 0.5 -0.191342
    endloop
  endfacet
  facet normal 0 1 0
    outer loop
       vertex 0.5 0.5 0
       vertex 0.46194 0.5 -0.191342
       vertex 0.415735 0.5 -0.277785
    endloop
  endfacet
  facet normal 0 1 0
    outer loop
       vertex 0.5 0.5 0
       vertex 0.415735 0.5 -0.277785
       vertex 0.353553 0.5 -0.353553
    endloop
  endfacet
  facet normal 0 1 0
    outer loop
       vertex 0.5 0.5 0
       vertex 0.353553 0.5 -0.353553
       vertex 0.277785 0.5 -0.415735
    endloop
  endfacet
  facet normal 0 1 0
    outer loop
       vertex 0.5 0.5 0
       vertex 0.277785 0.5 -0.415735
       vertex 0.191342 0.5 -0.46194
    endloop
  endfacet
  facet normal 0 1 0
    outer loop
       vertex 0.5 0.5 0
       vertex 0.191342 0.5 -0.46194
       vertex 0.0975452 0.5 -0.490393
    endloop
  endfacet
  facet normal 0 1 0
    outer loop
       vertex 0.5 0.5 0
       vertex 0.0975452 0.5 -0.490393
       vertex 3.06162e-17 0.5 -0.5
    endloop
  endfacet
  facet normal 0 1 0
    outer loop
       vertex 0.5 0.5 0
       vertex 3.06162e-17 0.5 -0.5
       vertex -0.0975452 0.5 -0.490393
    endloop
  endfacet
  facet normal 0 1 0
    outer loop
       vertex 0.5 0.5 0
       vertex -0.0975452 0.5 -0.490393
       vertex -0.191342 0.5 -0.46194
    endloop
  endfacet
  facet normal 0 1 0
    outer loop
       vertex 0.5 0.5 0
       vertex -0.191342 0.5 -0.46194
       vertex -0.277785 0.5 -0.415735
    endloop
  endfacet
  facet normal 0 1 0
    outer loop
       vertex 0.5 0.5 0
       vertex -0.277785 0.5 -0.415735
       vertex -0.353553 0.5 -0.353553
    endloop
  endfacet
  facet normal 0 1 0
    outer loop
       vertex 0.5 0.5 0
       vertex -0.353553 0.5 -0.353553
       vertex -0.415735 0.5 -0.277785
    endloop
  endfacet
  facet normal 0 1 0
    outer loop
       vertex 0.5 0.5 0
       vertex -0.415735 0.5 -0.277785
       vertex -0.46194 0.5 -0.191342
    endloop
  endfacet
  facet normal 0 1 0
    outer loop
       vertex 0.5 0.5 0
       vertex -0.46194 0.5 -0.191342
       vertex -0.490393 0.5 -0.0975452
    endloop
  endfacet
  facet normal 0 1 0
    outer loop
       vertex 0.5 0.5 0
       vertex -0.490393 0.5 -0.0975452
       vertex -0.5 0.5 -6.12323e-17
    endloop
  endfacet
  facet normal 0 1 0
    outer loop
       vertex 0.5 0.5 0
       vertex -0.5 0.5 -6.12323e-17
       vertex -0.490393 0.5 0.0975452
    endloop
  endfacet
  facet normal 0 1 0
    outer loop
       vertex 0.5 0.5 0
       vertex -0.490393 0.5 0.0975452
       vertex -0.46194 0.5 0.191342
    endloop
  endfacet
  facet normal 0 1 0
    outer loop
       vertex 0.5 0.5 0
       vertex -0.46194 0.5 0.191342
       vertex -0.415735 0.5 0.277785
    endloop
  endfacet
  facet normal 0 1 0
    outer loop
       vertex 0.5 0.5 0
       vertex -0.415735 0.5 0.277785
       vertex -0.353553 0.5 0.353553
    endloop
  endfacet
  facet normal 0 1 0
    outer loop
       vertex 0.5 0.5 0
       vertex -0.353553 0.5 0.353553
       vertex -0.277785 0.5 0.415735
    endloop
  endfacet
  facet normal 0 1 0
    outer loop
       vertex 0.5 0.5 0
       vertex -0.277785 0.5 0.415735
       vertex -0.191342 0.5 0.46194
    endloop
  endfacet
  facet normal 0 1 0
    outer loop
       vertex 0.5 0.5 0
       vertex -0.191342 0.5 0.46194
       vertex -0.0975452 0.5 0.490393
    endloop
  endfacet
  facet normal 0 1 0
    outer loop
       vertex 0.5 0.5 0
       vertex -0.0975452 0.5 0.490393
       vertex -9.18485e-17 0.5 0.5
    endloop
  endfacet
  facet normal 0 1 0
    outer loop
       vertex 0.5 0.5 0
       vertex -9.18485e-17 0.5 0.5
       vertex 0.0975452 0.5 0.490393
    endloop
  endfacet
  facet normal 0 1 0
    outer loop
       vertex 0.5 0.5 0
       vertex 0.0975452 0.5 0.490393
       vertex 0.191342 0.5 0.46194
    endloop
  endfacet
  facet normal 0 1 0
    outer loop
       vertex 0.5 0.5 0
       vertex 0.191342 0.5 0.46194
       vertex 0.277785 0.5 0.415735
    endloop
  endfacet
  facet normal 0 1 0
    outer loop
       vertex 0.5 0.5 0
       vertex 0.277785 0.5 0.415735
       vertex 0.353553 0.5 0.353553
    endloop
  endfacet
  facet normal 0 1 0
    outer loop
       vertex 0.5 0.5 0
       vertex 0.353553 0.5 0.353553
       vertex 0.415735 0.5 0.277785
    endloop
  endfacet
  facet normal 0 1 0
    outer loop
       vertex 0.5 0.5 0
       vertex 0.415735 0.5 0.277785
       vertex 0.46194 0.5 0.191342
    endloop
  endfacet
  facet normal 0 1 0
    outer loop
       vertex 0.5 0.5 0
       vertex 0.46194 0.5 0.191342
       vertex 0.490393 0.5 0.0975452
    endloop
  endfacet
  facet normal 0 -1 0
    outer loop
       vertex 0.490393 -0.5 0.0975452
       vertex 0.46194 -0.5 0.191342
       vertex 0.415735 -0.5 0.277785
    endloop
  endfacet
  facet normal 0 -1 0
    outer loop
       vertex 0.490393 -0.5 0.0975452
       vertex 0.415735 -0.5 0.277785
       vertex 0.353553 -0.5 0.353553
    endloop
  endfacet
  facet normal 0 -1 0
    outer loop
       vertex 0.490393 -0.5 0.0975452
       vertex 0.353553 -0.5 0.353553
       vertex 0.277785 -0.5 0.415735
    endloop
  endfacet
  facet normal 0 -1 0
    outer loop
       vertex 0.490393 -0.5 0.0975452
       vertex 0.277785 -0.5 0.415735
       vertex 0.191342 -0.5 0.46194
    endloop
  endfacet
  facet normal 0 -1 0
    outer loop
       vertex 0.490393 -0.5 0.0975452
       vertex 0.191342 -0.5 0.46194
       vertex 0.0975452 -0.5 0.490393
    endloop
  endfacet
  facet normal 0 -1 0
    outer loop
       vertex 0.490393 -0.5 0.0975452
       vertex 0.0975452 -0.5 0.490393
       vertex -9.18485e-17 -0.5 0.5
    endloop
  endfacet
  facet normal 0 -1 0
    outer loop
       vertex 0.490393 -0.5 0.0975452
       vertex -9.18485e-17 -0.5 0.5
       vertex -0.0975452 -0.5 0.490393
    endloop
  endfacet
  facet normal 0 -1 0
    outer loop
       vertex 0.490393 -0.5 0.0975452
       vertex -0.0975452 -0.5 0.490393
       vertex -0.191342 -0.5 0.46194
    endloop
  endfacet
  facet normal 0 -1 0
    outer loop
       vertex 0.490393 -0.5 0.0975452
       vertex -0.191342 -0.5 0.46194
       vertex -0.277785 -0.5 0.415735
    endloop
  endfacet
  facet normal 0 -1 0
    outer loop
       vertex 0.490393 -0.5 0.0975452
       vertex -0.277785 -0.5 0.415735
       vertex -0.353553 -0.5 0.353553
    endloop
  endfacet
  facet normal 0 -1 0
    outer loop
       vertex 0.490393 -0.5 0.0975452
       vertex -0.353553 -0.5 0.353553
       vertex -0.415735 -0.5 0.277785
    endloop
  endfacet
  facet normal 0 -1 0
    outer loop
       vertex 0.490393 -0.5 0.0975452
       vertex -0.415735 -0.5 0.277785
       vertex -0.46194 -0.5 0.191342
    endloop
  endfacet
  facet normal 0 -1 0
    outer loop
       vertex 0.490393 -0.5 0.0975452
       vertex -0.46194 -0.5 0.191342
       vertex -0.490393 -0.5 0.0975452
    endloop
  endfacet
  facet normal -0 -1 0
    outer loop
       vertex 0.490393 -0.5 0.0975452
       vertex -0.490393 -0.5 0.0975452
       vertex -0.5 -0.5 -6.12323e-17
    endloop
  endfacet
  facet normal 0 -1 0
    outer loop
       vertex 0.490393 -0.5 0.0975452
       vertex -0.5 -0.5 -6.12323e-17
       vertex -0.490393 -0.5 -0.0975452
    endloop
  endfacet
  facet normal 0 -1 0
    outer loop
       vertex 0.490393 -0.5 0.0975452
       vertex -0.490393 -0.5 -0.0975452
       vertex -0.46194 -0.5 -0.191342
    endloop
  endfacet
  facet normal 0 -1 0
    outer loop
       vertex 0.490393 -0.5 0.0975452
       vertex -0.46194 -0.5 -0.191342
       vertex -0.415735 -0.5 -0.277785
    endloop
  endfacet
  facet normal 0 -1 0
    outer loop
       vertex 0.490393 -0.5 0.0975452
       vertex -0.415735 -0.5 -0.277785
       vertex -0.353553 -0.5 -0.353553
    endloop
  endfacet
  facet normal 0 -1 0
    outer loop
       vertex 0.490393 -0.5 0.0975452
       vertex -0.353553 -0.5 -0.353553
       vertex -0.277785 -0.5 -0.415735
    endloop
  endfacet
  facet normal 0 -1 0
    outer loop
       vertex 0.490393 -0.5 0.0975452
       vertex -0.277785 -0.5 -0.415735
       vertex -0.191342 -0.5 -0.46194
    endloop
  endfacet
  facet normal 0 -1 0
    outer loop
       vertex 0.490393 -0.5 0.0975452
       vertex -0.191342 -0.5 -0.46194
       vertex -0.0975452 -0.5 -0.490393
    endloop
  endfacet
  facet normal 0 -1 0
    outer loop
       vertex 0.490393 -0.5 0.0975452
       vertex -0.0975452 -0.5 -0.490393
       vertex 3.06162e-17 -0.5 -0.5
    endloop
  endfacet
  facet normal 0 -1 0
    outer loop
       vertex 0.490393 -0.5 0.0975452
       vertex 3.06162e-17 -0.5 -0.5
       vertex 0.0975452 -0.5 -0.490393
    endloop
  endfacet
  facet normal 0 -1 0
    outer loop
       vertex 0.490393 -0.5 0.0975452
       vertex 0.0975452 -0.5 -0.490393
       vertex 0.191342 -0.5 -0.46194
    endloop
  endfacet
  facet normal 0 -1 0
    outer loop
       vertex 0.490393 -0.5 0.0975452
       vertex 0.191342 -0.5 -0.46194
       vertex 0.277785 -0.5 -0.415735
    endloop
  endfacet
  facet normal 0 -1 0
    outer loop
       vertex 0.490393 -0.5 0.0975452
       vertex 0.277785 -0.5 -0.415735
       vertex 0.353553 -0.5 -0.353553
    endloop
  endfacet
  facet normal 0 -1 0
    outer loop
       vertex 0.490393 -0.5 0.0975452
       vertex 0.353553 -0.5 -0.353553
       vertex 0.415735 -0.5 -0.277785
    endloop
  endfacet
  facet normal 0 -1 0
    outer loop
       vertex 0.490393 -0.5 0.0975452
       vertex 0.415735 -0.5 -0.277785
       vertex 0.46194 -0.5 -0.191342
    endloop
  endfacet
  facet normal 0 -1 -0
    outer loop
       vertex 0.490393 -0.5 0.0975452
       vertex 0.46194 -0.5 -0.191342
       vertex 0.490393 -0.5 -0.0975452
    endloop
  endfacet
  facet normal 0 -1 0
    outer loop
       vertex 0.490393 -0.5 0.0975452
       vertex 0.490393 -0.5 -0.0975452
       vertex 0.5 -0.5 0
    endloop
  endfacet
endsolid zone0
